<mxfile host="app.diagrams.net" agent="Mozilla/5.0 (Windows NT 10.0; Win64; x64) AppleWebKit/537.36 (KHTML, like Gecko) Chrome/129.0.0.0 Safari/537.36" version="24.7.17">
  <diagram name="Page-1" id="9QIoWkd_nTfabSAc6IJ0">
    <mxGraphModel dx="3237" dy="1157" grid="1" gridSize="10" guides="1" tooltips="1" connect="1" arrows="1" fold="1" page="1" pageScale="1" pageWidth="850" pageHeight="1100" math="0" shadow="0">
      <root>
        <mxCell id="0" />
        <mxCell id="1" parent="0" />
        <mxCell id="pX9KQdE8NNl21G2KABxe-10" value="CA &amp;amp; Qemu" style="ellipse;whiteSpace=wrap;html=1;fillColor=#fff2cc;strokeColor=#d6b656;" parent="1" vertex="1">
          <mxGeometry x="460" y="890" width="120" height="80" as="geometry" />
        </mxCell>
        <mxCell id="pX9KQdE8NNl21G2KABxe-7" value="" style="ellipse;whiteSpace=wrap;html=1;fillColor=#dae8fc;strokeColor=#6c8ebf;" parent="1" vertex="1">
          <mxGeometry x="450" y="800" width="240" height="80" as="geometry" />
        </mxCell>
        <mxCell id="pX9KQdE8NNl21G2KABxe-2" value="" style="endArrow=classic;html=1;rounded=0;" parent="1" edge="1">
          <mxGeometry width="50" height="50" relative="1" as="geometry">
            <mxPoint x="520" y="1010" as="sourcePoint" />
            <mxPoint x="520" y="680" as="targetPoint" />
          </mxGeometry>
        </mxCell>
        <mxCell id="pX9KQdE8NNl21G2KABxe-9" value="Mperf 优化" style="ellipse;whiteSpace=wrap;html=1;fillColor=#d5e8d4;strokeColor=#82b366;" parent="1" vertex="1">
          <mxGeometry x="360" y="770" width="80" height="80" as="geometry" />
        </mxCell>
        <mxCell id="pX9KQdE8NNl21G2KABxe-12" value="算子 优化" style="ellipse;whiteSpace=wrap;html=1;fillColor=#e1d5e7;strokeColor=#9673a6;" parent="1" vertex="1">
          <mxGeometry x="280" y="770" width="80" height="80" as="geometry" />
        </mxCell>
        <mxCell id="pX9KQdE8NNl21G2KABxe-3" value="产品化" style="text;html=1;align=center;verticalAlign=middle;whiteSpace=wrap;rounded=0;" parent="1" vertex="1">
          <mxGeometry x="760" y="825" width="60" height="30" as="geometry" />
        </mxCell>
        <mxCell id="pX9KQdE8NNl21G2KABxe-4" value="一代产品" style="text;html=1;align=center;verticalAlign=middle;whiteSpace=wrap;rounded=0;" parent="1" vertex="1">
          <mxGeometry x="490" y="570" width="60" height="30" as="geometry" />
        </mxCell>
        <mxCell id="pX9KQdE8NNl21G2KABxe-5" value="探索" style="text;html=1;align=center;verticalAlign=middle;whiteSpace=wrap;rounded=0;" parent="1" vertex="1">
          <mxGeometry x="180" y="825" width="60" height="30" as="geometry" />
        </mxCell>
        <mxCell id="pX9KQdE8NNl21G2KABxe-6" value="二代产品" style="text;html=1;align=center;verticalAlign=middle;whiteSpace=wrap;rounded=0;" parent="1" vertex="1">
          <mxGeometry x="490" y="1050" width="60" height="30" as="geometry" />
        </mxCell>
        <mxCell id="pX9KQdE8NNl21G2KABxe-1" value="" style="endArrow=classic;html=1;rounded=0;" parent="1" target="pX9KQdE8NNl21G2KABxe-3" edge="1">
          <mxGeometry width="50" height="50" relative="1" as="geometry">
            <mxPoint x="240" y="840" as="sourcePoint" />
            <mxPoint x="760" y="840" as="targetPoint" />
          </mxGeometry>
        </mxCell>
        <mxCell id="pX9KQdE8NNl21G2KABxe-8" value="&lt;font style=&quot;font-size: 23px;&quot;&gt;TCCL&lt;/font&gt;" style="edgeLabel;html=1;align=center;verticalAlign=middle;resizable=0;points=[];labelBackgroundColor=none;" parent="pX9KQdE8NNl21G2KABxe-1" vertex="1" connectable="0">
          <mxGeometry x="0.2191" y="4" relative="1" as="geometry">
            <mxPoint x="29" y="4" as="offset" />
          </mxGeometry>
        </mxCell>
        <mxCell id="pX9KQdE8NNl21G2KABxe-13" value="Mperf 优化" style="rounded=1;whiteSpace=wrap;html=1;fillColor=#d5e8d4;strokeColor=#82b366;" parent="1" vertex="1">
          <mxGeometry x="160" y="360" width="240" height="40" as="geometry" />
        </mxCell>
        <mxCell id="pX9KQdE8NNl21G2KABxe-14" value="算子优化" style="rounded=1;whiteSpace=wrap;html=1;fillColor=#e1d5e7;strokeColor=#9673a6;" parent="1" vertex="1">
          <mxGeometry x="160" y="400" width="120" height="40" as="geometry" />
        </mxCell>
        <mxCell id="pX9KQdE8NNl21G2KABxe-15" value="通信优化" style="rounded=1;whiteSpace=wrap;html=1;fillColor=#dae8fc;strokeColor=#6c8ebf;" parent="1" vertex="1">
          <mxGeometry x="280" y="400" width="120" height="40" as="geometry" />
        </mxCell>
        <mxCell id="pX9KQdE8NNl21G2KABxe-16" value="硬件体系结构" style="rounded=1;whiteSpace=wrap;html=1;fillColor=#f8cecc;strokeColor=#b85450;" parent="1" vertex="1">
          <mxGeometry x="160" y="480" width="520" height="40" as="geometry" />
        </mxCell>
        <mxCell id="pX9KQdE8NNl21G2KABxe-17" value="CA &amp;amp; Qemu" style="rounded=1;whiteSpace=wrap;html=1;fillColor=#e1d5e7;strokeColor=#9673a6;" parent="1" vertex="1">
          <mxGeometry x="440" y="400" width="240" height="40" as="geometry" />
        </mxCell>
        <mxCell id="pX9KQdE8NNl21G2KABxe-18" value="" style="endArrow=none;dashed=1;html=1;rounded=0;" parent="1" edge="1">
          <mxGeometry width="50" height="50" relative="1" as="geometry">
            <mxPoint x="420" y="560" as="sourcePoint" />
            <mxPoint x="420" y="320" as="targetPoint" />
          </mxGeometry>
        </mxCell>
        <mxCell id="pX9KQdE8NNl21G2KABxe-19" value="" style="shape=flexArrow;endArrow=classic;startArrow=classic;html=1;rounded=0;exitX=0;exitY=1;exitDx=0;exitDy=0;entryX=0.5;entryY=1;entryDx=0;entryDy=0;fillColor=#ffff88;strokeColor=#36393d;" parent="1" source="pX9KQdE8NNl21G2KABxe-15" target="pX9KQdE8NNl21G2KABxe-17" edge="1">
          <mxGeometry width="100" height="100" relative="1" as="geometry">
            <mxPoint x="300" y="580" as="sourcePoint" />
            <mxPoint x="810" y="600" as="targetPoint" />
            <Array as="points">
              <mxPoint x="420" y="480" />
            </Array>
          </mxGeometry>
        </mxCell>
      </root>
    </mxGraphModel>
  </diagram>
</mxfile>
